<?xml version="1.0" encoding="UTF-8" standalone="no"?>
<svg
   xmlns:dc="http://purl.org/dc/elements/1.1/"
   xmlns:cc="http://creativecommons.org/ns#"
   xmlns:rdf="http://www.w3.org/1999/02/22-rdf-syntax-ns#"
   xmlns:svg="http://www.w3.org/2000/svg"
   xmlns="http://www.w3.org/2000/svg"
   viewBox="0 0 694.16266 280"
   height="280"
   width="694.16266"
   xml:space="preserve"
   id="svg2"
   version="1.1"><metadata
     id="metadata8"><rdf:RDF><cc:Work
         rdf:about=""><dc:format>image/svg+xml</dc:format><dc:type
           rdf:resource="http://purl.org/dc/dcmitype/StillImage" /></cc:Work></rdf:RDF></metadata><defs
     id="defs6"><clipPath
       id="clipPath18"
       clipPathUnits="userSpaceOnUse"><path
         id="path16"
         d="M 0,210 H 520.622 V 0 H 0 Z" /></clipPath></defs><g
     transform="matrix(1.3333333,0,0,-1.3333333,0,280)"
     id="g10"><g
       id="g12"><g
         clip-path="url(#clipPath18)"
         id="g14"><g
           transform="translate(146.1754,118.3467)"
           id="g20"><path
             id="path22"
             style="fill:#000c37;fill-opacity:1;fill-rule:nonzero;stroke:none"
             d="m 0,0 c -1.156,-1.578 -2.999,-2.366 -5.531,-2.366 -1.688,0 -2.753,0.12 -3.196,0.362 -0.441,0.241 -0.663,0.883 -0.663,1.929 v 13.292 c 0,0.161 0.005,0.402 0.016,0.723 0.01,0.322 0.015,0.553 0.015,0.694 0.884,0.16 1.838,0.241 2.863,0.241 2.653,0 4.687,-0.753 6.104,-2.261 C 1.024,11.107 1.733,9.027 1.733,6.375 1.733,3.702 1.155,1.577 0,0 m -3.602,16.081 c -1.025,0 -2.557,-0.051 -4.596,-0.151 -2.04,-0.101 -3.563,-0.151 -4.567,-0.151 0.442,-0.683 0.663,-2 0.663,-3.948 V 0.498 c 0,-1.95 -0.221,-3.266 -0.663,-3.949 0.622,0 1.718,-0.02 3.286,-0.06 1.567,-0.04 2.893,-0.061 3.978,-0.061 2.974,0 5.445,0.929 7.415,2.788 1.969,1.859 2.954,4.416 2.954,7.671 0,2.713 -0.784,4.924 -2.351,6.632 -1.568,1.707 -3.608,2.562 -6.119,2.562" /></g><g
           transform="translate(160.5387,128.8208)"
           id="g24"><path
             id="path26"
             style="fill:#000c37;fill-opacity:1;fill-rule:nonzero;stroke:none"
             d="m 0,0 c -0.523,0 -1.016,-0.15 -1.478,-0.452 -0.461,-0.301 -0.813,-0.603 -1.054,-0.904 -0.241,-0.302 -0.372,-0.452 -0.392,-0.452 -0.101,0 -0.166,0.251 -0.196,0.753 -0.03,0.502 -0.147,0.754 -0.347,0.754 -0.1,0 -0.442,-0.02 -1.024,-0.06 -0.583,-0.041 -1.086,-0.071 -1.508,-0.091 0.241,-0.201 0.422,-0.583 0.543,-1.145 0.12,-0.563 0.19,-1.086 0.211,-1.568 0.019,-0.482 0.03,-1.195 0.03,-2.14 v -5.335 c 0,-1.608 -0.181,-2.703 -0.543,-3.285 h 3.316 c -0.362,0.582 -0.542,1.677 -0.542,3.285 v 6.209 c 0,0.784 0.11,1.376 0.331,1.779 0.221,0.402 0.674,0.603 1.356,0.603 0.262,0 0.598,-0.015 1.01,-0.046 0.412,-0.03 0.709,-0.045 0.89,-0.045 0.703,0 1.054,0.332 1.054,0.995 C 1.657,-0.382 1.104,0 0,0" /></g><g
           transform="translate(162.6169,116.4931)"
           id="g28"><path
             id="path30"
             style="fill:#000c37;fill-opacity:1;fill-rule:nonzero;stroke:none"
             d="m 0,0 1.417,-2.08 2.381,1.447 -1.416,2.11 z" /></g><g
           transform="translate(187.7262,134.126)"
           id="g32"><path
             id="path34"
             style="fill:#000c37;fill-opacity:1;fill-rule:nonzero;stroke:none"
             d="M 0,0 C 0.301,-0.322 0.452,-0.724 0.452,-1.206 0.452,-2.03 0,-3.225 -0.904,-4.792 l -2.05,-3.648 c -0.382,-0.704 -0.613,-1.055 -0.693,-1.055 -0.162,0 -0.322,0.302 -0.483,0.905 -0.301,1.125 -0.759,2.421 -1.371,3.888 -0.613,1.466 -1.201,2.652 -1.764,3.556 -0.3,0.483 -0.557,0.794 -0.768,0.935 C -8.244,-0.071 -8.601,0 -9.103,0 h -2.592 c 1.286,-1.166 2.612,-3.145 3.978,-5.938 0.724,-1.467 1.256,-2.693 1.598,-3.677 0.342,-0.985 0.513,-1.96 0.513,-2.924 v -2.743 c 0,-1.949 -0.222,-3.265 -0.664,-3.948 h 4.04 c -0.443,0.683 -0.664,1.999 -0.664,3.948 v 1.266 c 0,1.788 0.282,3.326 0.844,4.612 0.302,0.723 1.105,2.079 2.411,4.069 L 3.798,0 Z" /></g><g
           transform="translate(199.1344,117.0356)"
           id="g36"><path
             id="path38"
             style="fill:#000c37;fill-opacity:1;fill-rule:nonzero;stroke:none"
             d="m 0,0 c -0.553,-1.025 -1.472,-1.537 -2.758,-1.537 -1.005,0 -1.839,0.341 -2.502,1.024 -0.663,0.683 -1.125,1.523 -1.386,2.517 -0.261,0.995 -0.392,2.125 -0.392,3.392 0,1.486 0.276,2.742 0.829,3.767 0.553,1.025 1.472,1.537 2.758,1.537 1.005,0 1.839,-0.342 2.502,-1.025 C -0.286,8.992 0.176,8.153 0.437,7.159 0.698,6.164 0.829,5.034 0.829,3.768 0.829,2.28 0.553,1.025 0,0 m -2.456,11.785 c -2.231,0 -3.975,-0.693 -5.23,-2.079 C -8.942,8.319 -9.57,6.44 -9.57,4.069 c 0,-1.829 0.487,-3.401 1.462,-4.717 0.974,-1.316 2.426,-1.975 4.355,-1.975 2.231,0 3.974,0.694 5.231,2.081 1.254,1.386 1.883,3.265 1.883,5.636 0,1.828 -0.488,3.401 -1.462,4.717 -0.975,1.316 -2.426,1.974 -4.355,1.974" /></g><g
           transform="translate(215.2448,128.8208)"
           id="g40"><path
             id="path42"
             style="fill:#000c37;fill-opacity:1;fill-rule:nonzero;stroke:none"
             d="m 0,0 -2.894,-0.482 c 0.282,-0.201 0.462,-0.442 0.543,-0.724 0.08,-0.281 0.121,-0.723 0.121,-1.326 v -5.184 c 0,-0.683 -0.02,-1.251 -0.06,-1.703 -0.041,-0.452 -0.147,-0.97 -0.316,-1.552 -0.171,-0.584 -0.463,-1.03 -0.874,-1.342 -0.413,-0.312 -0.941,-0.467 -1.583,-0.467 -0.583,0 -1.06,0.11 -1.432,0.332 -0.372,0.22 -0.644,0.547 -0.814,0.979 -0.17,0.432 -0.287,0.854 -0.346,1.266 -0.061,0.412 -0.091,0.899 -0.091,1.462 v 8.078 c 0,0.442 -0.15,0.663 -0.452,0.663 -0.12,0 -0.317,-0.02 -0.588,-0.06 -0.272,-0.041 -0.603,-0.096 -0.994,-0.166 -0.393,-0.07 -0.679,-0.116 -0.86,-0.135 0.282,-0.201 0.462,-0.443 0.543,-0.724 0.08,-0.282 0.12,-0.723 0.12,-1.326 v -7.958 c 0,-1.286 0.347,-2.28 1.04,-2.984 0.694,-0.703 1.573,-1.055 2.638,-1.055 0.763,0 1.451,0.151 2.065,0.452 0.612,0.302 1.074,0.608 1.386,0.92 0.311,0.311 0.477,0.467 0.497,0.467 0.101,0 0.151,-0.161 0.151,-0.482 v -1.055 l 2.834,0.181 C 0.211,-13.523 0,-12.519 0,-10.911 Z" /></g><g
           transform="translate(225.026,122.1142)"
           id="g44"><path
             id="path46"
             style="fill:#000c37;fill-opacity:1;fill-rule:nonzero;stroke:none"
             d="m 0,0 c -0.613,0.352 -1.227,0.688 -1.839,1.01 -0.613,0.321 -1.136,0.728 -1.567,1.22 -0.433,0.493 -0.649,1.071 -0.649,1.734 0,0.602 0.216,1.059 0.649,1.371 0.431,0.311 0.968,0.467 1.612,0.467 0.703,0 1.261,-0.115 1.673,-0.346 0.412,-0.231 0.909,-0.708 1.492,-1.432 0.04,0.844 0.061,1.527 0.061,2.05 0,0.1 -0.131,0.191 -0.393,0.271 -1.024,0.241 -1.939,0.362 -2.742,0.362 -3.055,0 -4.582,-1.076 -4.582,-3.226 0,-0.824 0.206,-1.532 0.618,-2.125 0.411,-0.592 0.909,-1.065 1.492,-1.416 0.582,-0.352 1.165,-0.693 1.748,-1.025 0.583,-0.332 1.08,-0.744 1.492,-1.236 0.412,-0.492 0.619,-1.07 0.619,-1.733 0,-1.708 -0.946,-2.562 -2.834,-2.562 -0.924,0 -1.633,0.191 -2.125,0.573 -0.493,0.381 -1.01,1.004 -1.552,1.869 0,-0.201 -0.026,-0.554 -0.075,-1.055 -0.051,-0.503 -0.077,-0.885 -0.077,-1.146 0,-0.321 0.171,-0.542 0.513,-0.663 1.165,-0.441 2.28,-0.663 3.346,-0.663 1.406,0 2.647,0.382 3.723,1.145 1.074,0.764 1.612,1.819 1.612,3.165 0,0.764 -0.216,1.432 -0.648,2.005 C 1.135,-0.813 0.612,-0.352 0,0" /></g><g
           transform="translate(236.1784,122.1142)"
           id="g48"><path
             id="path50"
             style="fill:#000c37;fill-opacity:1;fill-rule:nonzero;stroke:none"
             d="m 0,0 c -0.613,0.352 -1.227,0.688 -1.839,1.01 -0.613,0.321 -1.136,0.728 -1.567,1.22 -0.433,0.493 -0.649,1.071 -0.649,1.734 0,0.602 0.216,1.059 0.649,1.371 0.431,0.311 0.968,0.467 1.612,0.467 0.703,0 1.261,-0.115 1.673,-0.346 0.412,-0.231 0.909,-0.708 1.492,-1.432 0.04,0.844 0.061,1.527 0.061,2.05 0,0.1 -0.131,0.191 -0.393,0.271 -1.024,0.241 -1.939,0.362 -2.742,0.362 -3.055,0 -4.582,-1.076 -4.582,-3.226 0,-0.824 0.206,-1.532 0.618,-2.125 0.411,-0.592 0.909,-1.065 1.492,-1.416 0.582,-0.352 1.165,-0.693 1.748,-1.025 0.583,-0.332 1.08,-0.744 1.492,-1.236 0.412,-0.492 0.619,-1.07 0.619,-1.733 0,-1.708 -0.946,-2.562 -2.834,-2.562 -0.924,0 -1.633,0.191 -2.125,0.573 -0.493,0.381 -1.01,1.004 -1.552,1.869 0,-0.201 -0.026,-0.554 -0.075,-1.055 -0.051,-0.503 -0.077,-0.885 -0.077,-1.146 0,-0.321 0.171,-0.542 0.513,-0.663 1.165,-0.441 2.28,-0.663 3.346,-0.663 1.406,0 2.647,0.382 3.723,1.145 1.074,0.764 1.612,1.819 1.612,3.165 0,0.764 -0.216,1.432 -0.648,2.005 C 1.135,-0.813 0.612,-0.352 0,0" /></g><g
           transform="translate(241.2565,114.8955)"
           id="g52"><path
             id="path54"
             style="fill:#000c37;fill-opacity:1;fill-rule:nonzero;stroke:none"
             d="M 0,0 H 3.315 C 2.954,0.583 2.773,1.678 2.773,3.286 v 6.209 c 0,0.783 0.111,1.376 0.331,1.778 0.222,0.402 0.674,0.603 1.357,0.603 0.262,0 0.598,-0.015 1.01,-0.045 0.412,-0.031 0.709,-0.046 0.889,-0.046 0.703,0 1.055,0.332 1.055,0.995 0,0.763 -0.553,1.145 -1.657,1.145 -0.524,0 -1.016,-0.15 -1.478,-0.452 C 3.818,13.172 3.467,12.871 3.226,12.569 2.984,12.268 2.854,12.117 2.834,12.117 c -0.102,0 -0.166,0.251 -0.196,0.754 -0.031,0.502 -0.147,0.753 -0.347,0.753 -0.101,0 -0.442,-0.02 -1.024,-0.06 C 0.684,13.523 0.181,13.493 -0.241,13.473 0,13.272 0.181,12.89 0.302,12.328 c 0.12,-0.563 0.19,-1.085 0.211,-1.567 0.019,-0.483 0.03,-1.196 0.03,-2.14 V 3.286 C 0.543,1.678 0.362,0.583 0,0" /></g><g
           transform="translate(257.5944,127.2534)"
           id="g56"><path
             id="path58"
             style="fill:#000c37;fill-opacity:1;fill-rule:nonzero;stroke:none"
             d="m 0,0 c 0,-0.683 -0.292,-1.899 -0.874,-3.647 l -1.538,-4.792 c -0.221,-0.603 -0.372,-0.905 -0.452,-0.905 -0.101,0 -0.24,0.302 -0.422,0.905 l -2.592,8.831 c -0.101,0.321 -0.206,0.547 -0.316,0.678 -0.111,0.131 -0.286,0.196 -0.528,0.196 -0.282,0 -1.025,-0.06 -2.23,-0.181 0.703,-0.864 1.567,-3.044 2.592,-6.541 l 1.326,-4.491 c 0.221,-0.703 0.332,-1.447 0.332,-2.23 0,-1.668 -0.593,-3.346 -1.778,-5.034 -0.382,-0.562 -0.719,-0.964 -1.01,-1.206 -0.292,-0.241 -0.735,-0.437 -1.326,-0.587 -0.593,-0.151 -1.432,-0.226 -2.518,-0.226 -0.181,0 -0.456,0.01 -0.828,0.03 -0.372,0.02 -0.618,0.03 -0.739,0.03 -0.281,0 -0.422,-0.181 -0.422,-0.542 0,-0.362 0.171,-0.653 0.512,-0.874 0.342,-0.222 0.689,-0.362 1.04,-0.423 0.352,-0.06 0.708,-0.09 1.071,-0.09 0.783,0 1.562,0.241 2.336,0.724 0.773,0.481 1.431,1.05 1.973,1.703 0.543,0.652 1.076,1.426 1.598,2.32 0.522,0.894 0.909,1.623 1.16,2.185 0.251,0.563 0.498,1.136 0.739,1.719 l 4.25,10.881 c 0.422,1.045 0.833,1.929 1.236,2.652 H -0.332 C -0.111,0.724 0,0.362 0,0" /></g><g
           transform="translate(288.8512,121.6621)"
           id="g60"><path
             id="path62"
             style="fill:#000c37;fill-opacity:1;fill-rule:nonzero;stroke:none"
             d="m 0,0 c -0.041,1.035 -0.061,1.899 -0.061,2.592 0,0.694 0.005,1.678 0.015,2.954 0.01,1.276 0.016,2.155 0.016,2.638 V 8.816 9.51 c 0,0.1 0.005,0.302 0.014,0.603 0.01,0.301 0.031,0.527 0.061,0.678 0.03,0.15 0.064,0.341 0.105,0.573 0.04,0.23 0.095,0.431 0.166,0.602 0.071,0.171 0.156,0.337 0.256,0.498 h -3.074 c -0.181,0 -0.342,-0.041 -0.482,-0.121 -0.222,-0.12 -0.473,-0.502 -0.754,-1.145 L -8.952,-1.371 c -0.201,-0.483 -0.382,-0.724 -0.543,-0.724 -0.04,0 -0.08,0.015 -0.12,0.046 -0.041,0.029 -0.075,0.085 -0.106,0.165 -0.03,0.08 -0.06,0.151 -0.091,0.211 -0.03,0.061 -0.06,0.151 -0.09,0.272 -0.03,0.12 -0.055,0.211 -0.076,0.271 l -4.46,13.142 c -0.101,0.301 -0.413,0.452 -0.935,0.452 h -3.737 c 0.341,-0.201 0.552,-0.418 0.632,-0.648 0.081,-0.232 0.122,-0.578 0.122,-1.04 V 3.24 c 0,-5.224 -0.413,-8.429 -1.237,-9.615 l -0.27,-0.392 h 3.586 c -0.201,0.322 -0.352,0.784 -0.452,1.387 -0.101,0.603 -0.161,1.15 -0.181,1.643 -0.02,0.492 -0.03,1.251 -0.03,2.275 l 0.03,9.796 c 0,0.664 0.091,0.995 0.271,0.995 0.04,0 0.08,-0.015 0.121,-0.045 0.04,-0.03 0.076,-0.076 0.106,-0.136 0.029,-0.06 0.059,-0.12 0.09,-0.181 0.03,-0.06 0.07,-0.146 0.121,-0.256 0.05,-0.11 0.09,-0.206 0.12,-0.286 0.03,-0.081 0.07,-0.192 0.121,-0.332 0.05,-0.14 0.095,-0.261 0.135,-0.362 l 5.727,-14.799 6.752,15.945 c 0.12,0.301 0.251,0.452 0.392,0.452 0.141,0 0.211,-0.221 0.211,-0.663 V -1.341 c 0,-2.613 -0.181,-4.421 -0.543,-5.426 H 1.145 C 0.723,-6.023 0.411,-4.707 0.211,-2.818 0.109,-1.974 0.04,-1.035 0,0" /></g><g
           transform="translate(297.9538,127.9165)"
           id="g64"><path
             id="path66"
             style="fill:#000c37;fill-opacity:1;fill-rule:nonzero;stroke:none"
             d="m 0,0 c 0.703,0 1.261,-0.231 1.673,-0.693 0.412,-0.463 0.618,-0.994 0.618,-1.598 0,-0.281 -0.04,-0.502 -0.12,-0.663 C 2.09,-3.115 1.93,-3.23 1.688,-3.3 1.447,-3.371 1.226,-3.411 1.025,-3.421 0.824,-3.431 0.492,-3.436 0.03,-3.436 H -3.074 C -2.552,-1.145 -1.527,0 0,0 m 2.141,-4.34 c 0.762,0 1.305,0.015 1.627,0.045 0.321,0.03 0.608,0.151 0.859,0.362 0.251,0.211 0.377,0.537 0.377,0.979 0,1.045 -0.422,1.949 -1.266,2.713 -0.844,0.763 -1.96,1.145 -3.345,1.145 -1.991,0 -3.538,-0.688 -4.643,-2.064 -1.105,-1.377 -1.657,-3.09 -1.657,-5.139 0,-1.99 0.502,-3.688 1.507,-5.095 1.004,-1.406 2.441,-2.109 4.31,-2.109 1.146,0 2.225,0.316 3.24,0.949 1.014,0.633 1.522,1.342 1.522,2.125 v 0.332 c -0.361,-0.422 -0.879,-0.764 -1.552,-1.025 -0.674,-0.261 -1.372,-0.392 -2.095,-0.392 -1.467,0 -2.567,0.528 -3.3,1.582 -0.734,1.056 -1.101,2.356 -1.101,3.904 0,0.361 0.04,0.924 0.121,1.688 z" /></g><g
           transform="translate(314.1696,118.9946)"
           id="g68"><path
             id="path70"
             style="fill:#000c37;fill-opacity:1;fill-rule:nonzero;stroke:none"
             d="m 0,0 c 0,-0.884 -0.221,-1.608 -0.663,-2.17 -0.442,-0.563 -1.085,-0.844 -1.929,-0.844 -1.447,0 -2.547,0.577 -3.301,1.733 -0.753,1.156 -1.129,2.507 -1.129,4.054 0,1.768 0.452,3.205 1.356,4.31 0.903,1.105 2.17,1.658 3.798,1.658 0.722,0 1.215,-0.171 1.476,-0.512 C -0.131,7.887 0,7.334 0,6.571 Z M 2.23,17 -0.663,16.518 C -0.221,16.116 0,15.111 0,13.503 V 9.706 c -0.684,0.08 -1.205,0.12 -1.567,0.12 -2.412,0 -4.326,-0.683 -5.743,-2.049 C -8.726,6.41 -9.435,4.531 -9.435,2.14 c 0,-1.768 0.448,-3.33 1.342,-4.687 0.894,-1.356 2.175,-2.035 3.843,-2.035 0.824,0 1.553,0.131 2.186,0.393 0.632,0.26 1.099,0.517 1.401,0.768 0.302,0.251 0.462,0.377 0.482,0.377 0.101,0 0.151,-0.091 0.151,-0.271 l 0.121,-1.146 2.682,0.362 C 2.411,-3.557 2.23,-2.472 2.23,-0.844 Z" /></g><g
           transform="translate(322.9411,128.8208)"
           id="g72"><path
             id="path74"
             style="fill:#000c37;fill-opacity:1;fill-rule:nonzero;stroke:none"
             d="m 0,0 -2.894,-0.482 c 0.201,-0.141 0.352,-0.317 0.453,-0.528 0.099,-0.211 0.155,-0.407 0.166,-0.587 0.009,-0.181 0.024,-0.493 0.045,-0.935 v -8.138 c 0,-1.608 -0.181,-2.693 -0.543,-3.255 H 0.542 C 0.181,-13.363 0,-12.278 0,-10.67 Z" /></g><g
           transform="translate(320.0172,132.3476)"
           id="g76"><path
             id="path78"
             style="fill:#000c37;fill-opacity:1;fill-rule:nonzero;stroke:none"
             d="M 0,0 1.387,-1.959 3.557,-0.542 2.17,1.477 Z" /></g><g
           transform="translate(330.3561,117.6235)"
           id="g80"><path
             id="path82"
             style="fill:#000c37;fill-opacity:1;fill-rule:nonzero;stroke:none"
             d="m 0,0 c -0.703,1.014 -1.055,2.355 -1.055,4.024 0,1.727 0.371,3.174 1.116,4.34 0.743,1.165 1.757,1.748 3.043,1.748 0.563,0 1.036,-0.111 1.417,-0.331 C 4.903,9.56 5.189,9.313 5.381,9.042 5.571,8.771 5.817,8.354 6.119,7.792 H 6.27 v 2.983 c 0,0.04 -0.126,0.096 -0.377,0.166 -0.251,0.07 -0.598,0.131 -1.04,0.181 -0.442,0.05 -0.894,0.075 -1.357,0.075 -2.19,0 -3.948,-0.723 -5.274,-2.17 -1.326,-1.446 -1.99,-3.276 -1.99,-5.485 0,-1.89 0.547,-3.487 1.643,-4.793 1.095,-1.307 2.557,-1.959 4.386,-1.959 1.185,0 2.216,0.236 3.09,0.708 0.874,0.472 1.31,1.09 1.31,1.854 v 0.482 C 5.817,-1.07 4.722,-1.522 3.376,-1.522 1.828,-1.522 0.703,-1.015 0,0" /></g><g
           transform="translate(346.2106,119.4468)"
           id="g84"><path
             id="path86"
             style="fill:#000c37;fill-opacity:1;fill-rule:nonzero;stroke:none"
             d="m 0,0 c 0,-0.924 -0.236,-1.713 -0.708,-2.366 -0.473,-0.653 -1.141,-0.98 -2.005,-0.98 -0.703,0 -1.266,0.181 -1.687,0.543 -0.422,0.362 -0.633,0.894 -0.633,1.597 0,0.784 0.241,1.392 0.722,1.824 0.483,0.432 1.377,0.969 2.683,1.612 L 0,3.044 Z m 2.592,-3.632 c -0.06,0.191 -0.111,0.351 -0.151,0.482 -0.04,0.131 -0.075,0.317 -0.105,0.558 -0.03,0.241 -0.05,0.417 -0.061,0.528 -0.009,0.109 -0.019,0.311 -0.029,0.602 -0.011,0.291 -0.016,0.477 -0.016,0.558 v 0.618 0.588 6.631 c 0,1.628 -1.326,2.441 -3.978,2.441 -1.387,0 -2.628,-0.226 -3.723,-0.678 -1.095,-0.452 -1.642,-1.141 -1.642,-2.065 0,-0.703 0.371,-1.055 1.115,-1.055 0.422,0 0.754,0.151 0.994,0.452 0.241,0.302 0.407,0.634 0.498,0.995 0.09,0.362 0.312,0.693 0.663,0.995 0.352,0.301 0.849,0.452 1.492,0.452 C -0.783,8.47 0,7.585 0,5.817 0,4.913 -0.141,4.3 -0.422,3.979 -0.603,3.778 -1.176,3.446 -2.14,2.984 -2.321,2.904 -2.683,2.743 -3.225,2.502 -3.768,2.261 -4.18,2.069 -4.461,1.929 -4.742,1.789 -5.114,1.572 -5.576,1.281 -6.039,0.99 -6.39,0.718 -6.631,0.467 -6.872,0.216 -7.089,-0.101 -7.279,-0.482 c -0.192,-0.382 -0.286,-0.784 -0.286,-1.206 0,-1.065 0.351,-1.889 1.054,-2.472 0.703,-0.582 1.598,-0.874 2.683,-0.874 0.663,0 1.23,0.106 1.703,0.317 0.472,0.211 0.809,0.432 1.01,0.663 0.201,0.231 0.471,0.598 0.813,1.1 0.061,0.06 0.121,0.091 0.182,0.091 0.08,0 0.136,-0.066 0.165,-0.196 0.03,-0.131 0.076,-0.372 0.136,-0.724 0.06,-0.351 0.121,-0.668 0.18,-0.949 l 2.713,0.181 c -0.1,0.14 -0.19,0.281 -0.27,0.422 -0.081,0.14 -0.152,0.306 -0.212,0.497" /></g><g
           transform="translate(354.7409,135.9946)"
           id="g88"><path
             id="path90"
             style="fill:#000c37;fill-opacity:1;fill-rule:nonzero;stroke:none"
             d="m 0,0 -3.015,-0.482 c 0.242,-0.181 0.422,-0.453 0.543,-0.814 0.12,-0.362 0.191,-0.683 0.211,-0.965 0.02,-0.281 0.031,-0.693 0.031,-1.236 v -14.347 c 0,-1.608 -0.181,-2.693 -0.543,-3.255 H 0.542 C 0.181,-20.537 0,-19.452 0,-17.844 Z" /></g><g
           transform="translate(371.2272,119.0552)"
           id="g92"><path
             id="path94"
             style="fill:#000c37;fill-opacity:1;fill-rule:nonzero;stroke:none"
             d="m 0,0 c -1.266,1.567 -1.898,3.587 -1.898,6.059 0,1.506 0.211,2.853 0.632,4.038 0.422,1.186 1.146,2.171 2.17,2.954 1.026,0.784 2.291,1.176 3.798,1.176 0.965,0 1.794,-0.151 2.487,-0.453 0.694,-0.301 1.186,-0.617 1.477,-0.949 0.291,-0.331 0.588,-0.768 0.89,-1.311 h 0.09 l 0.121,3.798 c -0.704,0 -1.579,0.04 -2.623,0.121 -1.045,0.08 -1.849,0.12 -2.412,0.12 -3.034,0 -5.42,-0.94 -7.158,-2.818 -1.738,-1.88 -2.607,-4.386 -2.607,-7.521 -0.021,-2.833 0.773,-5.184 2.381,-7.053 1.607,-1.869 3.757,-2.803 6.45,-2.803 2.11,0 3.783,0.482 5.018,1.447 1.237,0.965 1.855,1.879 1.855,2.743 v 0.181 C 9.404,-1.658 7.666,-2.351 5.456,-2.351 3.085,-2.351 1.267,-1.567 0,0" /></g><g
           transform="translate(390.0358,127.9165)"
           id="g96"><path
             id="path98"
             style="fill:#000c37;fill-opacity:1;fill-rule:nonzero;stroke:none"
             d="m 0,0 c 0.703,0 1.261,-0.231 1.673,-0.693 0.412,-0.463 0.618,-0.994 0.618,-1.598 0,-0.281 -0.04,-0.502 -0.12,-0.663 C 2.09,-3.115 1.93,-3.23 1.688,-3.3 1.447,-3.371 1.226,-3.411 1.025,-3.421 0.824,-3.431 0.492,-3.436 0.03,-3.436 H -3.074 C -2.552,-1.145 -1.527,0 0,0 m 2.141,-4.34 c 0.762,0 1.305,0.015 1.627,0.045 0.321,0.03 0.608,0.151 0.859,0.362 0.251,0.211 0.377,0.537 0.377,0.979 0,1.045 -0.422,1.949 -1.266,2.713 -0.844,0.763 -1.96,1.145 -3.345,1.145 -1.991,0 -3.538,-0.688 -4.643,-2.064 -1.105,-1.377 -1.657,-3.09 -1.657,-5.139 0,-1.99 0.502,-3.688 1.507,-5.095 1.004,-1.406 2.441,-2.109 4.31,-2.109 1.146,0 2.225,0.316 3.24,0.949 1.014,0.633 1.522,1.342 1.522,2.125 v 0.332 c -0.361,-0.422 -0.879,-0.764 -1.552,-1.025 -0.674,-0.261 -1.372,-0.392 -2.095,-0.392 -1.467,0 -2.567,0.528 -3.3,1.582 -0.734,1.056 -1.101,2.356 -1.101,3.904 0,0.361 0.04,0.924 0.121,1.688 z" /></g><g
           transform="translate(407.7594,124.9023)"
           id="g100"><path
             id="path102"
             style="fill:#000c37;fill-opacity:1;fill-rule:nonzero;stroke:none"
             d="M 0,0 C 0,2.612 -1.226,3.918 -3.677,3.918 -4.36,3.918 -5.008,3.768 -5.621,3.466 -6.234,3.165 -6.711,2.858 -7.053,2.547 -7.395,2.235 -7.585,2.08 -7.625,2.08 c -0.121,0 -0.182,0.161 -0.182,0.482 v 1.055 l -2.802,-0.18 c 0.421,-0.403 0.632,-1.407 0.632,-3.015 v -7.173 c 0,-1.608 -0.18,-2.693 -0.542,-3.256 h 3.316 c -0.362,0.563 -0.543,1.648 -0.543,3.256 v 4.852 c 0,2.793 0.944,4.19 2.833,4.19 0.583,0 1.06,-0.111 1.433,-0.332 0.371,-0.221 0.642,-0.547 0.813,-0.979 0.17,-0.433 0.286,-0.855 0.347,-1.266 0.06,-0.412 0.09,-0.9 0.09,-1.462 v -8.259 H 0.482 C 0.161,-9.444 0,-8.359 0,-6.751 Z" /></g><g
           transform="translate(415.5055,116.1616)"
           id="g104"><path
             id="path106"
             style="fill:#000c37;fill-opacity:1;fill-rule:nonzero;stroke:none"
             d="m 0,0 c -0.542,0 -0.904,0.155 -1.085,0.467 -0.181,0.311 -0.271,0.769 -0.271,1.371 v 9.254 h 0.512 c 0.563,0 1.075,0.075 1.537,0.226 0.462,0.151 0.694,0.367 0.694,0.648 0,0.14 -0.091,0.211 -0.272,0.211 h -2.471 v 4.28 l -2.11,-0.573 -0.121,-3.707 -1.266,-0.12 v -0.965 h 1.266 V 1.386 c 0,-2.09 0.904,-3.135 2.713,-3.135 0.522,0 1.08,0.157 1.673,0.468 0.593,0.311 0.899,0.547 0.92,0.708 l 0.12,1.296 C 1.678,0.562 1.396,0.401 0.995,0.241 0.593,0.08 0.261,0 0,0" /></g><g
           transform="translate(425.2116,127.9165)"
           id="g108"><path
             id="path110"
             style="fill:#000c37;fill-opacity:1;fill-rule:nonzero;stroke:none"
             d="m 0,0 c 0.703,0 1.261,-0.231 1.673,-0.693 0.412,-0.463 0.618,-0.994 0.618,-1.598 0,-0.281 -0.04,-0.502 -0.12,-0.663 C 2.09,-3.115 1.93,-3.23 1.688,-3.3 1.447,-3.371 1.226,-3.411 1.025,-3.421 0.824,-3.431 0.492,-3.436 0.03,-3.436 H -3.074 C -2.552,-1.145 -1.527,0 0,0 m 2.141,-4.34 c 0.762,0 1.305,0.015 1.627,0.045 0.321,0.03 0.608,0.151 0.859,0.362 0.251,0.211 0.377,0.537 0.377,0.979 0,1.045 -0.422,1.949 -1.266,2.713 -0.844,0.763 -1.96,1.145 -3.345,1.145 -1.991,0 -3.538,-0.688 -4.643,-2.064 -1.105,-1.377 -1.657,-3.09 -1.657,-5.139 0,-1.99 0.502,-3.688 1.507,-5.095 1.004,-1.406 2.441,-2.109 4.31,-2.109 1.146,0 2.225,0.316 3.24,0.949 1.014,0.633 1.522,1.342 1.522,2.125 v 0.332 c -0.361,-0.422 -0.879,-0.764 -1.552,-1.025 -0.674,-0.261 -1.372,-0.392 -2.095,-0.392 -1.467,0 -2.567,0.528 -3.3,1.582 -0.734,1.056 -1.101,2.356 -1.101,3.904 0,0.361 0.04,0.924 0.121,1.688 z" /></g><g
           transform="translate(438.444,128.8208)"
           id="g112"><path
             id="path114"
             style="fill:#000c37;fill-opacity:1;fill-rule:nonzero;stroke:none"
             d="m 0,0 c -0.523,0 -1.016,-0.15 -1.478,-0.452 -0.461,-0.301 -0.813,-0.603 -1.054,-0.904 -0.241,-0.302 -0.372,-0.452 -0.392,-0.452 -0.101,0 -0.166,0.251 -0.196,0.753 -0.03,0.502 -0.147,0.754 -0.347,0.754 -0.1,0 -0.442,-0.02 -1.024,-0.06 -0.583,-0.041 -1.086,-0.071 -1.508,-0.091 0.241,-0.201 0.422,-0.583 0.543,-1.145 0.12,-0.563 0.19,-1.086 0.211,-1.568 0.019,-0.482 0.03,-1.195 0.03,-2.14 v -5.335 c 0,-1.608 -0.181,-2.703 -0.543,-3.285 h 3.316 c -0.362,0.582 -0.542,1.677 -0.542,3.285 v 6.209 c 0,0.784 0.11,1.376 0.331,1.779 0.221,0.402 0.674,0.603 1.356,0.603 0.262,0 0.598,-0.015 1.01,-0.046 0.412,-0.03 0.709,-0.045 0.89,-0.045 0.703,0 1.054,0.332 1.054,0.995 C 1.657,-0.382 1.104,0 0,0" /></g><g
           transform="translate(469.3698,132.709)"
           id="g116"><path
             id="path118"
             style="fill:#000c37;fill-opacity:1;fill-rule:nonzero;stroke:none"
             d="m 0,0 c 0,-1.789 -0.271,-3.748 -0.814,-5.877 l -1.99,-7.958 c -0.1,-0.482 -0.221,-0.723 -0.361,-0.723 -0.041,0 -0.075,0.01 -0.106,0.03 -0.03,0.02 -0.055,0.04 -0.075,0.06 -0.02,0.02 -0.036,0.055 -0.046,0.106 -0.009,0.049 -0.02,0.1 -0.03,0.151 -0.01,0.049 -0.025,0.109 -0.045,0.18 -0.02,0.071 -0.04,0.136 -0.06,0.196 L -6.24,-3.647 c -0.462,1.728 -0.693,2.834 -0.693,3.315 0,0.563 0.221,1.146 0.663,1.749 h -5.154 c 0.502,-0.523 0.753,-1.146 0.753,-1.869 0,-1.346 -0.181,-2.602 -0.542,-3.768 l -2.954,-9.554 c -0.201,-0.523 -0.361,-0.784 -0.482,-0.784 -0.162,0 -0.272,0.281 -0.331,0.844 -0.443,4.259 -1.257,8.922 -2.442,13.985 -0.182,0.764 -0.503,1.146 -0.965,1.146 h -2.682 c 0.08,-0.141 0.22,-0.442 0.422,-0.904 0.522,-1.286 1.125,-3.557 1.808,-6.812 0.683,-3.256 1.205,-6.039 1.568,-8.349 l 0.512,-3.286 h 2.531 c 0.141,0.482 0.357,1.195 0.649,2.14 0.291,0.944 0.516,1.648 0.678,2.11 l 2.923,9.284 c 0.04,0.12 0.085,0.275 0.136,0.467 0.05,0.19 0.091,0.331 0.121,0.422 0.03,0.09 0.065,0.191 0.106,0.301 0.04,0.11 0.085,0.186 0.135,0.226 0.05,0.04 0.106,0.061 0.166,0.061 0.06,0 0.11,-0.021 0.151,-0.061 0.04,-0.04 0.085,-0.116 0.135,-0.226 0.05,-0.11 0.086,-0.216 0.105,-0.316 0.021,-0.101 0.056,-0.242 0.107,-0.422 0.049,-0.181 0.094,-0.332 0.134,-0.452 l 1.839,-6.18 c 0.221,-0.723 0.432,-1.497 0.633,-2.32 0.201,-0.825 0.412,-1.729 0.634,-2.713 0.221,-0.985 0.401,-1.759 0.542,-2.321 h 2.532 l 3.466,13.473 c 0.482,1.909 1.065,3.466 1.748,4.672 L 3.436,1.417 H -0.482 C -0.161,1.116 0,0.643 0,0" /></g><g
           transform="translate(473.4381,116.4931)"
           id="g120"><path
             id="path122"
             style="fill:#000c37;fill-opacity:1;fill-rule:nonzero;stroke:none"
             d="m 0,0 1.417,-2.08 2.381,1.447 -1.416,2.11 z" /></g><g
           transform="translate(484.8922,116.1011)"
           id="g124"><path
             id="path126"
             style="fill:#000c37;fill-opacity:1;fill-rule:nonzero;stroke:none"
             d="m 0,0 v 14.076 c 0,1.949 0.221,3.265 0.663,3.949 h -4.039 c 0.441,-0.684 0.663,-2 0.663,-3.949 V 5.637 c 0,-3.678 -0.342,-5.959 -1.024,-6.843 h 8.348 c 0.623,0 1.237,0.031 1.839,0.091 L 7.023,1.718 C 5.857,0.573 4.28,0 2.291,0 Z" /></g><g
           transform="translate(494.0846,116.4931)"
           id="g128"><path
             id="path130"
             style="fill:#000c37;fill-opacity:1;fill-rule:nonzero;stroke:none"
             d="m 0,0 1.417,-2.08 2.381,1.447 -1.416,2.11 z" /></g><g
           transform="translate(507.8297,116.1011)"
           id="g132"><path
             id="path134"
             style="fill:#000c37;fill-opacity:1;fill-rule:nonzero;stroke:none"
             d="m 0,0 h -2.291 v 14.076 c 0,1.949 0.221,3.265 0.663,3.949 h -4.039 c 0.441,-0.684 0.663,-2 0.663,-3.949 V 5.637 c 0,-3.678 -0.342,-5.959 -1.024,-6.843 H 2.32 c 0.623,0 1.237,0.031 1.839,0.091 L 4.732,1.718 C 3.566,0.573 1.989,0 0,0" /></g><g
           transform="translate(32.263,54.3134)"
           id="g136"><path
             id="path138"
             style="fill:#003651;fill-opacity:1;fill-rule:nonzero;stroke:none"
             d="m 0,0 c -1.521,-8.538 -11.886,-10.107 -19.023,-9.977 l -0.573,-0.038 c -0.39,-0.799 -0.431,-1.723 -0.113,-2.553 l 0.699,-1.444 c 5.979,-4.862 13.072,1.201 17.562,1.473 2.607,0.158 5.223,-1.425 8.875,-0.905 8.895,1.268 9.255,12.577 12.697,19.32 C 25.99,17.368 34.04,16.788 41.021,24.979 51.201,36.926 38.398,38.733 32.762,48.335 16.052,52.323 0.868,52.431 -6.762,70.238 -13.473,85.9 -12.611,105.278 -27,117.49 -8.405,110.683 -8.08,88.594 -1.192,73.808 4.211,62.207 18.382,53.61 30.782,54.16 26.715,67.923 24.586,84.637 26.01,98.99 c 2.155,21.727 21.905,29.834 36.406,12.426 16.31,-19.579 29.238,-63.141 30.625,-88.375 0.54,-9.814 -2.623,-31.021 3.938,-38.062 2.128,-2.283 7.016,-4.469 7.016,-4.469 C 92.691,-18.134 89.625,-7.541 88.122,2.122 82.753,36.641 82.649,52.185 66.859,84.859 61.674,95.588 46.819,126.18 35.81,103.19 28.714,88.37 33.361,69.292 34.015,53.513 c 12.074,-1.727 23.778,-3.087 35.98,-1.023 0,0 -5.124,-2.467 -6.33,-2.844 -2.176,-0.681 -7.987,-1.515 -9.67,-1.515 L 36.956,47.985 C 44.327,38.769 54.987,37.086 44.976,24.023 38.573,15.668 29.214,15.117 24.288,5.712 20.427,-1.659 20.613,-11.33 12.374,-15.375 c -7.407,-3.636 -8.737,-0.618 -14.753,-1.161 -4.901,-0.442 -18.196,-7.197 -20.417,2.76 -2.374,10.645 8.046,5.935 13.851,7.721 9.585,2.951 6.363,18.564 6.955,26.045 0.509,6.437 2.789,13.183 2.684,19.694 0,0 0.077,-4.141 0,-5.155 C 0.555,32.691 0.519,30.544 0.519,30.073 0.519,21.948 1.273,7.146 0,0" /></g><g
           transform="translate(147.7399,91.0073)"
           id="g140"><path
             id="path142"
             style="fill:#000000;fill-opacity:1;fill-rule:nonzero;stroke:none"
             d="m 0,0 c -0.501,0.28 -1.001,0.551 -1.502,0.813 -0.501,0.263 -0.927,0.582 -1.278,0.957 -0.352,0.376 -0.528,0.813 -0.528,1.314 0,0.644 0.2,1.132 0.599,1.466 0.399,0.333 0.927,0.5 1.582,0.5 0.597,0 1.058,-0.071 1.386,-0.214 0.328,-0.143 0.694,-0.423 1.099,-0.84 v 1.662 c -0.297,0 -0.754,0.018 -1.367,0.054 -0.614,0.036 -1.076,0.054 -1.386,0.054 -1.013,0 -1.865,-0.269 -2.556,-0.805 -0.692,-0.536 -1.037,-1.299 -1.037,-2.288 0,-0.608 0.176,-1.135 0.527,-1.583 0.352,-0.446 0.778,-0.81 1.278,-1.09 0.501,-0.28 1.001,-0.551 1.502,-0.813 0.501,-0.263 0.927,-0.599 1.279,-1.01 0.351,-0.412 0.527,-0.891 0.527,-1.44 0,-0.703 -0.221,-1.251 -0.661,-1.644 -0.442,-0.394 -1.014,-0.59 -1.717,-0.59 -0.44,0 -0.837,0.054 -1.188,0.161 -0.352,0.107 -0.66,0.268 -0.921,0.482 -0.263,0.215 -0.459,0.396 -0.59,0.545 -0.132,0.149 -0.292,0.355 -0.483,0.618 v -1.895 c 1.013,-0.417 2.039,-0.626 3.075,-0.626 1.085,0 2.049,0.316 2.896,0.947 0.846,0.632 1.27,1.472 1.27,2.521 0,0.631 -0.177,1.177 -0.528,1.636 C 0.927,-0.65 0.5,-0.28 0,0" /></g><g
           transform="translate(157.5544,93.3403)"
           id="g144"><path
             id="path146"
             style="fill:#000000;fill-opacity:1;fill-rule:nonzero;stroke:none"
             d="m 0,0 -1.717,-0.286 c 0.167,-0.119 0.275,-0.262 0.322,-0.429 0.047,-0.167 0.072,-0.429 0.072,-0.786 v -3.076 c 0,-0.405 -0.012,-0.741 -0.036,-1.009 -0.024,-0.269 -0.086,-0.576 -0.188,-0.921 -0.101,-0.346 -0.274,-0.611 -0.518,-0.796 -0.245,-0.185 -0.557,-0.277 -0.939,-0.277 -0.346,0 -0.629,0.065 -0.849,0.197 -0.22,0.131 -0.381,0.324 -0.483,0.581 -0.101,0.256 -0.17,0.506 -0.205,0.751 -0.036,0.244 -0.054,0.533 -0.054,0.866 v 4.791 c 0,0.263 -0.09,0.394 -0.268,0.394 -0.072,0 -0.188,-0.012 -0.349,-0.036 -0.16,-0.024 -0.357,-0.056 -0.59,-0.098 -0.232,-0.042 -0.402,-0.069 -0.51,-0.08 0.167,-0.12 0.275,-0.263 0.323,-0.43 0.048,-0.167 0.071,-0.429 0.071,-0.786 v -4.72 c 0,-0.763 0.206,-1.352 0.617,-1.769 0.411,-0.417 0.933,-0.626 1.565,-0.626 0.452,0 0.86,0.089 1.224,0.268 0.364,0.179 0.637,0.36 0.823,0.545 0.184,0.185 0.282,0.277 0.294,0.277 0.06,0 0.089,-0.095 0.089,-0.286 v -0.626 l 1.681,0.108 C 0.125,-8.021 0,-7.425 0,-6.472 Z" /></g><g
           transform="translate(163.1676,93.3403)"
           id="g148"><path
             id="path150"
             style="fill:#000000;fill-opacity:1;fill-rule:nonzero;stroke:none"
             d="m 0,0 c -0.311,0 -0.602,-0.089 -0.876,-0.268 -0.274,-0.179 -0.482,-0.357 -0.626,-0.537 -0.143,-0.178 -0.221,-0.268 -0.232,-0.268 -0.06,0 -0.098,0.149 -0.117,0.448 -0.017,0.297 -0.086,0.446 -0.205,0.446 -0.059,0 -0.262,-0.012 -0.608,-0.035 -0.346,-0.025 -0.644,-0.042 -0.894,-0.054 0.143,-0.119 0.25,-0.346 0.323,-0.679 0.071,-0.334 0.112,-0.644 0.125,-0.93 0.011,-0.286 0.017,-0.709 0.017,-1.269 v -3.165 c 0,-0.953 -0.107,-1.603 -0.322,-1.948 h 1.967 c -0.215,0.345 -0.322,0.995 -0.322,1.948 v 3.683 c 0,0.465 0.066,0.816 0.197,1.055 0.131,0.238 0.399,0.357 0.804,0.357 0.155,0 0.355,-0.009 0.599,-0.027 0.244,-0.017 0.42,-0.027 0.527,-0.027 0.417,0 0.626,0.197 0.626,0.591 C 0.983,-0.227 0.655,0 0,0" /></g><g
           transform="translate(169.9967,81.604)"
           id="g152"><path
             id="path154"
             style="fill:#000000;fill-opacity:1;fill-rule:nonzero;stroke:none"
             d="m 0,0 c -0.536,-0.375 -1.174,-0.563 -1.913,-0.563 -0.632,0 -1.219,0.167 -1.761,0.501 -0.542,0.333 -0.813,0.81 -0.813,1.43 0,0.428 0.178,0.843 0.536,1.242 0.357,0.399 0.706,0.691 1.046,0.876 0.34,0.184 0.563,0.277 0.671,0.277 0.107,0 0.518,-0.089 1.233,-0.268 C -0.513,3.376 -0.09,3.164 0.269,2.86 0.626,2.556 0.805,2.148 0.805,1.636 0.805,0.92 0.536,0.375 0,0 m -3.11,9.52 c 0,0.5 0.103,0.911 0.312,1.233 0.208,0.322 0.533,0.483 0.975,0.483 0.452,0 0.798,-0.194 1.037,-0.581 0.237,-0.388 0.357,-0.862 0.357,-1.422 0,-0.5 -0.098,-0.914 -0.295,-1.242 C -0.921,7.663 -1.216,7.5 -1.609,7.5 -2.109,7.5 -2.485,7.693 -2.735,8.081 -2.985,8.468 -3.11,8.947 -3.11,9.52 M 0.312,4.201 c -0.553,0.173 -1.105,0.322 -1.653,0.447 -0.548,0.125 -1.016,0.262 -1.403,0.411 -0.388,0.149 -0.581,0.337 -0.581,0.563 0,0.274 0.229,0.548 0.688,0.823 0.458,0.274 0.861,0.458 1.206,0.554 0.799,0.25 1.386,0.572 1.762,0.965 0.375,0.393 0.563,0.93 0.563,1.609 0,0.596 -0.143,1.055 -0.429,1.377 l 0.805,0.071 c 0.107,0.012 0.171,0.045 0.196,0.099 0.023,0.053 0.036,0.163 0.036,0.33 0,0.048 -0.03,0.072 -0.09,0.072 C 1.27,11.522 1.066,11.51 0.805,11.486 0.519,11.462 0.31,11.45 0.179,11.45 c -0.06,0 -0.304,0.048 -0.734,0.143 -0.405,0.095 -0.757,0.143 -1.054,0.143 -0.834,0 -1.543,-0.205 -2.127,-0.616 -0.584,-0.412 -0.876,-1.046 -0.876,-1.904 0,-1.026 0.488,-1.788 1.466,-2.289 0.119,-0.059 0.178,-0.107 0.178,-0.143 0,-0.083 -0.098,-0.173 -0.295,-0.268 C -3.459,6.42 -3.671,6.331 -3.897,6.248 -4.124,6.165 -4.335,6.036 -4.532,5.864 -4.729,5.691 -4.827,5.491 -4.827,5.265 c 0,-0.346 0.128,-0.608 0.385,-0.787 0.255,-0.179 0.511,-0.298 0.768,-0.357 0.256,-0.06 0.385,-0.125 0.385,-0.197 0,-0.095 -0.132,-0.241 -0.394,-0.438 C -3.945,3.29 -4.234,3.081 -4.55,2.86 -4.865,2.64 -5.155,2.33 -5.417,1.931 -5.679,1.532 -5.811,1.105 -5.811,0.652 c 0,-0.762 0.272,-1.346 0.814,-1.752 0.543,-0.404 1.267,-0.608 2.173,-0.608 0.583,0 1.271,0.18 2.064,0.537 0.792,0.358 1.502,0.843 2.127,1.457 0.626,0.614 0.939,1.225 0.939,1.832 0,0.513 -0.194,0.945 -0.58,1.297 C 1.338,3.766 0.867,4.028 0.312,4.201" /></g><g
           transform="translate(175.86,92.8042)"
           id="g156"><path
             id="path158"
             style="fill:#000000;fill-opacity:1;fill-rule:nonzero;stroke:none"
             d="m 0,0 c 0.417,0 0.748,-0.137 0.992,-0.411 0.244,-0.275 0.366,-0.59 0.366,-0.948 0,-0.167 -0.023,-0.298 -0.071,-0.393 C 1.239,-1.848 1.145,-1.916 1.001,-1.958 0.858,-2 0.727,-2.023 0.607,-2.029 0.488,-2.036 0.292,-2.038 0.018,-2.038 H -1.823 C -1.514,-0.68 -0.906,0 0,0 m 1.27,-2.575 c 0.452,0 0.774,0.01 0.964,0.027 0.191,0.018 0.361,0.09 0.51,0.215 0.149,0.125 0.224,0.318 0.224,0.581 0,0.619 -0.25,1.156 -0.751,1.609 -0.501,0.453 -1.162,0.679 -1.985,0.679 -1.179,0 -2.097,-0.408 -2.753,-1.224 -0.656,-0.817 -0.983,-1.833 -0.983,-3.048 0,-1.181 0.298,-2.188 0.894,-3.022 0.595,-0.834 1.448,-1.251 2.556,-1.251 0.68,0 1.321,0.188 1.922,0.563 0.602,0.375 0.903,0.796 0.903,1.26 v 0.197 c -0.214,-0.25 -0.522,-0.453 -0.92,-0.608 -0.4,-0.155 -0.814,-0.232 -1.244,-0.232 -0.87,0 -1.522,0.312 -1.957,0.938 -0.435,0.626 -0.652,1.397 -0.652,2.315 0,0.215 0.023,0.548 0.071,1.001 z" /></g><g
           transform="translate(180.2936,85.081)"
           id="g160"><path
             id="path162"
             style="fill:#000000;fill-opacity:1;fill-rule:nonzero;stroke:none"
             d="M 0,0 H 1.967 C 1.752,0.346 1.646,0.995 1.646,1.949 v 3.682 c 0,0.465 0.065,0.817 0.196,1.055 0.131,0.238 0.399,0.357 0.804,0.357 0.155,0 0.355,-0.008 0.599,-0.026 C 3.489,6.999 3.665,6.99 3.772,6.99 4.189,6.99 4.398,7.187 4.398,7.58 4.398,8.033 4.07,8.259 3.415,8.259 3.104,8.259 2.813,8.17 2.539,7.991 2.265,7.812 2.057,7.634 1.913,7.455 1.771,7.276 1.692,7.187 1.681,7.187 1.621,7.187 1.583,7.335 1.564,7.634 1.547,7.931 1.479,8.081 1.359,8.081 1.3,8.081 1.097,8.068 0.751,8.045 0.405,8.021 0.107,8.003 -0.143,7.991 0,7.872 0.107,7.646 0.18,7.312 0.251,6.978 0.292,6.668 0.305,6.382 0.316,6.096 0.322,5.673 0.322,5.113 V 1.949 C 0.322,0.995 0.215,0.346 0,0" /></g><g
           transform="translate(189.9831,92.4106)"
           id="g164"><path
             id="path166"
             style="fill:#000000;fill-opacity:1;fill-rule:nonzero;stroke:none"
             d="m 0,0 c 0,-0.405 -0.173,-1.126 -0.519,-2.163 l -0.912,-2.842 c -0.131,-0.358 -0.219,-0.537 -0.267,-0.537 -0.06,0 -0.144,0.179 -0.25,0.537 l -1.538,5.237 c -0.06,0.191 -0.122,0.325 -0.188,0.403 -0.065,0.077 -0.17,0.116 -0.312,0.116 -0.167,0 -0.609,-0.036 -1.324,-0.107 0.417,-0.513 0.93,-1.806 1.538,-3.88 l 0.787,-2.663 c 0.131,-0.418 0.196,-0.858 0.196,-1.323 0,-0.989 -0.352,-1.985 -1.055,-2.986 -0.226,-0.334 -0.426,-0.572 -0.598,-0.715 -0.173,-0.143 -0.436,-0.259 -0.787,-0.348 -0.351,-0.09 -0.849,-0.135 -1.493,-0.135 -0.107,0 -0.271,0.007 -0.492,0.018 -0.22,0.013 -0.366,0.018 -0.437,0.018 -0.167,0 -0.25,-0.107 -0.25,-0.321 0,-0.215 0.1,-0.388 0.303,-0.519 0.202,-0.131 0.409,-0.215 0.617,-0.25 0.209,-0.036 0.42,-0.054 0.634,-0.054 0.465,0 0.927,0.143 1.386,0.429 0.459,0.286 0.85,0.623 1.171,1.01 0.322,0.387 0.638,0.846 0.947,1.377 0.31,0.53 0.539,0.962 0.689,1.296 0.149,0.334 0.295,0.673 0.438,1.019 l 2.521,6.453 c 0.25,0.62 0.494,1.144 0.732,1.574 H -0.196 C -0.065,0.429 0,0.214 0,0" /></g><g
           transform="translate(201.1745,87.7803)"
           id="g168"><path
             id="path170"
             style="fill:#000000;fill-opacity:1;fill-rule:nonzero;stroke:none"
             d="m 0,0 c 0,-0.548 -0.141,-1.016 -0.42,-1.403 -0.28,-0.388 -0.677,-0.581 -1.189,-0.581 -0.417,0 -0.75,0.107 -1.001,0.322 -0.25,0.214 -0.375,0.53 -0.375,0.947 0,0.465 0.142,0.825 0.428,1.082 0.286,0.256 0.817,0.574 1.592,0.956 L 0,1.806 Z M 1.537,-2.154 C 1.502,-2.041 1.472,-1.946 1.448,-1.868 1.424,-1.791 1.403,-1.68 1.386,-1.537 1.367,-1.394 1.355,-1.29 1.35,-1.224 1.344,-1.159 1.338,-1.04 1.332,-0.867 1.326,-0.694 1.323,-0.584 1.323,-0.536 v 0.367 0.348 3.933 c 0,0.965 -0.787,1.448 -2.36,1.448 -0.822,0 -1.558,-0.134 -2.208,-0.402 -0.65,-0.268 -0.974,-0.677 -0.974,-1.225 0,-0.417 0.22,-0.625 0.661,-0.625 0.25,0 0.448,0.089 0.59,0.268 0.144,0.178 0.241,0.375 0.295,0.59 0.054,0.214 0.185,0.411 0.394,0.589 0.208,0.18 0.503,0.269 0.884,0.269 C -0.465,5.024 0,4.499 0,3.451 0,2.914 -0.083,2.55 -0.25,2.36 -0.357,2.241 -0.697,2.044 -1.27,1.77 -1.377,1.722 -1.591,1.627 -1.913,1.484 -2.234,1.341 -2.479,1.228 -2.646,1.145 -2.813,1.061 -3.033,0.933 -3.308,0.76 -3.581,0.587 -3.79,0.426 -3.933,0.277 -4.076,0.128 -4.204,-0.06 -4.317,-0.286 c -0.114,-0.226 -0.17,-0.464 -0.17,-0.715 0,-0.632 0.209,-1.12 0.626,-1.466 0.417,-0.346 0.947,-0.518 1.59,-0.518 0.394,0 0.731,0.062 1.01,0.188 0.281,0.125 0.481,0.255 0.6,0.393 0.119,0.136 0.279,0.354 0.482,0.652 0.036,0.036 0.072,0.054 0.108,0.054 0.047,0 0.08,-0.039 0.098,-0.116 0.018,-0.078 0.044,-0.221 0.08,-0.429 0.037,-0.209 0.072,-0.397 0.108,-0.564 l 1.608,0.108 c -0.059,0.083 -0.113,0.167 -0.16,0.25 -0.048,0.083 -0.09,0.181 -0.126,0.295" /></g><g
           transform="translate(210.5251,91.0161)"
           id="g172"><path
             id="path174"
             style="fill:#000000;fill-opacity:1;fill-rule:nonzero;stroke:none"
             d="M 0,0 C 0,1.549 -0.728,2.324 -2.182,2.324 -2.587,2.324 -2.971,2.235 -3.335,2.056 -3.698,1.877 -3.981,1.695 -4.184,1.511 -4.387,1.326 -4.5,1.234 -4.523,1.234 c -0.072,0 -0.108,0.095 -0.108,0.286 V 2.146 L -6.293,2.038 C -6.043,1.8 -5.918,1.204 -5.918,0.25 v -4.254 c 0,-0.954 -0.107,-1.598 -0.321,-1.931 h 1.966 c -0.214,0.333 -0.322,0.977 -0.322,1.931 v 2.878 c 0,1.656 0.56,2.485 1.681,2.485 0.345,0 0.628,-0.066 0.849,-0.197 0.22,-0.131 0.381,-0.325 0.482,-0.581 0.102,-0.256 0.17,-0.506 0.206,-0.75 0.036,-0.245 0.054,-0.534 0.054,-0.868 V -5.935 H 0.285 C 0.095,-5.602 0,-4.958 0,-4.004 Z" /></g><g
           transform="translate(217.9069,87.5122)"
           id="g176"><path
             id="path178"
             style="fill:#000000;fill-opacity:1;fill-rule:nonzero;stroke:none"
             d="m 0,0 c 0,-0.524 -0.131,-0.954 -0.393,-1.287 -0.262,-0.334 -0.643,-0.501 -1.144,-0.501 -0.859,0 -1.511,0.343 -1.958,1.028 -0.446,0.686 -0.67,1.487 -0.67,2.405 0,1.048 0.269,1.901 0.805,2.556 0.536,0.655 1.287,0.984 2.252,0.984 0.429,0 0.721,-0.102 0.876,-0.304 C -0.077,4.678 0,4.35 0,3.897 Z M 1.323,10.083 -0.393,9.797 C -0.131,9.558 0,8.962 0,8.009 V 5.757 c -0.405,0.047 -0.715,0.071 -0.93,0.071 -1.429,0 -2.565,-0.405 -3.405,-1.216 -0.84,-0.81 -1.261,-1.924 -1.261,-3.342 0,-1.049 0.266,-1.976 0.796,-2.78 0.53,-0.805 1.29,-1.207 2.279,-1.207 0.489,0 0.921,0.077 1.296,0.232 0.376,0.155 0.653,0.307 0.832,0.456 0.179,0.149 0.274,0.223 0.286,0.223 0.059,0 0.089,-0.053 0.089,-0.16 l 0.072,-0.68 1.591,0.215 C 1.431,-2.109 1.323,-1.466 1.323,-0.5 Z" /></g><g
           transform="translate(233.0944,87.1279)"
           id="g180"><path
             id="path182"
             style="fill:#000000;fill-opacity:1;fill-rule:nonzero;stroke:none"
             d="m 0,0 c -0.686,-0.936 -1.779,-1.403 -3.28,-1.403 -1.002,0 -1.634,0.071 -1.896,0.214 -0.261,0.143 -0.393,0.524 -0.393,1.145 v 7.883 c 0,0.096 0.003,0.239 0.009,0.429 0.006,0.191 0.009,0.328 0.009,0.411 0.525,0.096 1.09,0.143 1.698,0.143 1.574,0 2.78,-0.447 3.621,-1.341 C 0.607,6.588 1.027,5.354 1.027,3.781 1.027,2.196 0.685,0.936 0,0 m -2.137,9.538 c -0.607,0 -1.516,-0.03 -2.725,-0.09 C -6.072,9.388 -6.976,9.359 -7.571,9.359 -7.31,8.954 -7.178,8.173 -7.178,7.017 V 0.295 c 0,-1.156 -0.132,-1.937 -0.393,-2.342 0.369,0 1.019,-0.012 1.948,-0.036 0.93,-0.023 1.717,-0.035 2.36,-0.035 1.764,0 3.23,0.551 4.398,1.653 1.168,1.103 1.752,2.619 1.752,4.55 0,1.609 -0.465,2.92 -1.395,3.933 -0.93,1.013 -2.138,1.52 -3.629,1.52" /></g><g
           transform="translate(239.986,93.3403)"
           id="g184"><path
             id="path186"
             style="fill:#000000;fill-opacity:1;fill-rule:nonzero;stroke:none"
             d="m 0,0 -1.716,-0.286 c 0.119,-0.084 0.208,-0.188 0.268,-0.313 0.059,-0.125 0.093,-0.241 0.098,-0.348 0.006,-0.108 0.015,-0.293 0.027,-0.554 v -4.828 c 0,-0.953 -0.107,-1.597 -0.322,-1.93 H 0.322 C 0.107,-7.926 0,-7.282 0,-6.329 Z" /></g><g
           transform="translate(238.2516,95.4321)"
           id="g188"><path
             id="path190"
             style="fill:#000000;fill-opacity:1;fill-rule:nonzero;stroke:none"
             d="M 0,0 0.822,-1.162 2.11,-0.322 1.287,0.876 Z" /></g><g
           transform="translate(246.5114,87.7803)"
           id="g192"><path
             id="path194"
             style="fill:#000000;fill-opacity:1;fill-rule:nonzero;stroke:none"
             d="m 0,0 c 0,-0.548 -0.141,-1.016 -0.42,-1.403 -0.28,-0.388 -0.677,-0.581 -1.189,-0.581 -0.417,0 -0.75,0.107 -1.001,0.322 -0.25,0.214 -0.375,0.53 -0.375,0.947 0,0.465 0.142,0.825 0.428,1.082 0.286,0.256 0.817,0.574 1.592,0.956 L 0,1.806 Z M 1.537,-2.154 C 1.502,-2.041 1.472,-1.946 1.448,-1.868 1.424,-1.791 1.403,-1.68 1.386,-1.537 1.367,-1.394 1.355,-1.29 1.35,-1.224 1.344,-1.159 1.338,-1.04 1.332,-0.867 1.326,-0.694 1.323,-0.584 1.323,-0.536 v 0.367 0.348 3.933 c 0,0.965 -0.787,1.448 -2.36,1.448 -0.822,0 -1.558,-0.134 -2.208,-0.402 -0.65,-0.268 -0.974,-0.677 -0.974,-1.225 0,-0.417 0.22,-0.625 0.661,-0.625 0.25,0 0.448,0.089 0.59,0.268 0.144,0.178 0.241,0.375 0.295,0.59 0.054,0.214 0.185,0.411 0.394,0.589 0.208,0.18 0.503,0.269 0.884,0.269 C -0.465,5.024 0,4.499 0,3.451 0,2.914 -0.083,2.55 -0.25,2.36 -0.357,2.241 -0.697,2.044 -1.27,1.77 -1.377,1.722 -1.591,1.627 -1.913,1.484 -2.234,1.341 -2.479,1.228 -2.646,1.145 -2.813,1.061 -3.033,0.933 -3.308,0.76 -3.581,0.587 -3.79,0.426 -3.933,0.277 -4.076,0.128 -4.204,-0.06 -4.317,-0.286 c -0.114,-0.226 -0.17,-0.464 -0.17,-0.715 0,-0.632 0.209,-1.12 0.626,-1.466 0.417,-0.346 0.947,-0.518 1.59,-0.518 0.394,0 0.731,0.062 1.01,0.188 0.281,0.125 0.481,0.255 0.6,0.393 0.119,0.136 0.279,0.354 0.482,0.652 0.036,0.036 0.072,0.054 0.108,0.054 0.047,0 0.08,-0.039 0.098,-0.116 0.018,-0.078 0.044,-0.221 0.08,-0.429 0.037,-0.209 0.072,-0.397 0.108,-0.564 l 1.608,0.108 c -0.059,0.083 -0.113,0.167 -0.16,0.25 -0.048,0.083 -0.09,0.181 -0.126,0.295" /></g><g
           transform="translate(254.9489,87.3159)"
           id="g196"><path
             id="path198"
             style="fill:#000000;fill-opacity:1;fill-rule:nonzero;stroke:none"
             d="m 0,0 c -0.107,-0.477 -0.334,-0.909 -0.68,-1.296 -0.345,-0.388 -0.803,-0.581 -1.376,-0.581 -0.393,0 -0.718,0.065 -0.974,0.196 -0.257,0.131 -0.445,0.334 -0.564,0.608 -0.119,0.274 -0.196,0.545 -0.232,0.814 -0.035,0.268 -0.053,0.61 -0.053,1.028 v 1.376 c 0,0.858 0.172,1.534 0.518,2.029 0.345,0.494 0.828,0.742 1.448,0.742 0.691,0 1.21,-0.337 1.556,-1.01 C -0.012,3.232 0.161,2.455 0.161,1.573 0.161,1.001 0.107,0.477 0,0 M 0.965,4.648 C 0.751,5.065 0.449,5.399 0.062,5.649 -0.325,5.899 -0.775,6.024 -1.287,6.024 -1.716,6.024 -2.125,5.905 -2.512,5.667 -2.899,5.428 -3.203,5.193 -3.424,4.961 -3.645,4.729 -3.767,4.612 -3.79,4.612 c -0.06,0 -0.089,0.03 -0.089,0.09 v 5.577 L -5.792,9.993 c 0.393,-0.298 0.59,-0.894 0.59,-1.787 V 2.252 c 0,-1.669 -0.025,-3.164 -0.071,-4.487 0.44,0 0.97,-0.047 1.59,-0.143 0.62,-0.095 1.12,-0.143 1.502,-0.143 1.251,0 2.193,0.417 2.825,1.251 0.631,0.834 0.947,1.895 0.947,3.183 0,0.488 -0.051,0.962 -0.152,1.421 C 1.338,3.792 1.18,4.23 0.965,4.648" /></g><g
           transform="translate(261.5641,92.8042)"
           id="g200"><path
             id="path202"
             style="fill:#000000;fill-opacity:1;fill-rule:nonzero;stroke:none"
             d="m 0,0 c 0.417,0 0.748,-0.137 0.992,-0.411 0.244,-0.275 0.366,-0.59 0.366,-0.948 0,-0.167 -0.023,-0.298 -0.071,-0.393 C 1.239,-1.848 1.145,-1.916 1.001,-1.958 0.858,-2 0.727,-2.023 0.607,-2.029 0.488,-2.036 0.292,-2.038 0.018,-2.038 H -1.823 C -1.514,-0.68 -0.906,0 0,0 m 1.27,-2.575 c 0.452,0 0.774,0.01 0.964,0.027 0.191,0.018 0.361,0.09 0.51,0.215 0.149,0.125 0.224,0.318 0.224,0.581 0,0.619 -0.25,1.156 -0.751,1.609 -0.501,0.453 -1.162,0.679 -1.985,0.679 -1.179,0 -2.097,-0.408 -2.753,-1.224 -0.656,-0.817 -0.983,-1.833 -0.983,-3.048 0,-1.181 0.298,-2.188 0.894,-3.022 0.595,-0.834 1.448,-1.251 2.556,-1.251 0.68,0 1.321,0.188 1.922,0.563 0.602,0.375 0.903,0.796 0.903,1.26 v 0.197 c -0.214,-0.25 -0.522,-0.453 -0.92,-0.608 -0.4,-0.155 -0.814,-0.232 -1.244,-0.232 -0.87,0 -1.522,0.312 -1.957,0.938 -0.435,0.626 -0.652,1.397 -0.652,2.315 0,0.215 0.023,0.548 0.071,1.001 z" /></g><g
           transform="translate(268.3922,85.832)"
           id="g204"><path
             id="path206"
             style="fill:#000000;fill-opacity:1;fill-rule:nonzero;stroke:none"
             d="M 0,0 C -0.321,0 -0.536,0.092 -0.644,0.277 -0.75,0.461 -0.804,0.733 -0.804,1.09 V 6.579 H -0.5 c 0.333,0 0.638,0.045 0.912,0.134 0.274,0.089 0.411,0.217 0.411,0.384 0,0.083 -0.053,0.125 -0.161,0.125 H -0.804 V 9.761 L -2.056,9.421 -2.127,7.222 -2.878,7.151 V 6.579 h 0.751 V 0.822 c 0,-1.239 0.536,-1.859 1.609,-1.859 0.31,0 0.64,0.093 0.993,0.277 0.35,0.185 0.533,0.324 0.545,0.42 L 1.091,0.429 C 0.995,0.333 0.829,0.238 0.591,0.143 0.352,0.047 0.155,0 0,0" /></g><g
           transform="translate(272.7545,93.3403)"
           id="g208"><path
             id="path210"
             style="fill:#000000;fill-opacity:1;fill-rule:nonzero;stroke:none"
             d="m 0,0 -1.716,-0.286 c 0.119,-0.084 0.208,-0.188 0.268,-0.313 0.059,-0.125 0.093,-0.241 0.098,-0.348 0.006,-0.108 0.015,-0.293 0.027,-0.554 v -4.828 c 0,-0.953 -0.107,-1.597 -0.322,-1.93 H 0.322 C 0.107,-7.926 0,-7.282 0,-6.329 Z" /></g><g
           transform="translate(271.0202,95.4321)"
           id="g212"><path
             id="path214"
             style="fill:#000000;fill-opacity:1;fill-rule:nonzero;stroke:none"
             d="M 0,0 0.822,-1.162 2.11,-0.322 1.287,0.876 Z" /></g><g
           transform="translate(277.153,86.6987)"
           id="g216"><path
             id="path218"
             style="fill:#000000;fill-opacity:1;fill-rule:nonzero;stroke:none"
             d="m 0,0 c -0.418,0.602 -0.626,1.397 -0.626,2.387 0,1.025 0.221,1.883 0.661,2.574 0.442,0.691 1.043,1.037 1.806,1.037 0.334,0 0.614,-0.066 0.841,-0.197 C 2.907,5.67 3.077,5.524 3.19,5.363 3.304,5.203 3.45,4.955 3.629,4.622 H 3.718 V 6.391 C 3.718,6.415 3.644,6.448 3.494,6.49 3.346,6.531 3.14,6.567 2.878,6.597 2.615,6.626 2.348,6.642 2.073,6.642 c -1.299,0 -2.342,-0.43 -3.128,-1.288 -0.787,-0.858 -1.18,-1.942 -1.18,-3.253 0,-1.121 0.325,-2.068 0.974,-2.843 0.65,-0.775 1.517,-1.162 2.602,-1.162 0.703,0 1.313,0.14 1.832,0.421 0.518,0.279 0.777,0.646 0.777,1.099 v 0.286 C 3.45,-0.634 2.8,-0.903 2.002,-0.903 1.084,-0.903 0.417,-0.602 0,0" /></g><g
           transform="translate(292.6169,96.4868)"
           id="g220"><path
             id="path222"
             style="fill:#000000;fill-opacity:1;fill-rule:nonzero;stroke:none"
             d="m 0,0 h -5.542 c 0.035,-0.06 0.071,-0.125 0.106,-0.197 0.037,-0.071 0.064,-0.137 0.082,-0.197 0.017,-0.059 0.038,-0.137 0.062,-0.232 0.023,-0.095 0.042,-0.173 0.054,-0.232 0.011,-0.06 0.02,-0.143 0.026,-0.25 0.006,-0.108 0.012,-0.185 0.019,-0.233 0.006,-0.048 0.008,-0.134 0.008,-0.259 V -1.851 -2.11 -2.342 -9.064 c 0,-1.156 -0.131,-1.936 -0.393,-2.342 h 2.395 c -0.262,0.406 -0.393,1.186 -0.393,2.342 v 2.86 h 0.447 c 0.405,0 0.739,0.006 1.001,0.018 0.262,0.012 0.605,0.048 1.028,0.108 0.423,0.059 0.781,0.163 1.073,0.312 0.292,0.149 0.509,0.343 0.652,0.581 -0.918,-0.083 -2.318,-0.125 -4.201,-0.125 v 4.595 h 1.842 c 0.38,0 0.69,-0.009 0.929,-0.027 0.239,-0.018 0.516,-0.095 0.831,-0.233 0.316,-0.137 0.551,-0.33 0.706,-0.581 h 0.09 v 1.395 C 0.822,-0.054 0.548,0 0,0" /></g><g
           transform="translate(299.9186,86.3501)"
           id="g224"><path
             id="path226"
             style="fill:#000000;fill-opacity:1;fill-rule:nonzero;stroke:none"
             d="m 0,0 c -0.328,-0.607 -0.873,-0.912 -1.636,-0.912 -0.595,0 -1.091,0.203 -1.483,0.608 -0.394,0.406 -0.668,0.903 -0.822,1.493 -0.156,0.59 -0.233,1.26 -0.233,2.011 0,0.882 0.163,1.627 0.491,2.235 0.329,0.608 0.873,0.912 1.636,0.912 0.596,0 1.091,-0.203 1.485,-0.608 C -0.17,5.333 0.104,4.836 0.26,4.246 0.414,3.656 0.492,2.986 0.492,2.235 0.492,1.353 0.328,0.608 0,0 M -1.457,6.99 C -2.779,6.99 -3.813,6.579 -4.559,5.757 -5.304,4.935 -5.676,3.82 -5.676,2.414 c 0,-1.085 0.289,-2.018 0.867,-2.798 0.579,-0.781 1.439,-1.171 2.583,-1.171 1.324,0 2.357,0.411 3.102,1.233 0.745,0.823 1.117,1.937 1.117,3.343 0,1.085 -0.289,2.018 -0.867,2.798 C 0.548,6.6 -0.312,6.99 -1.457,6.99" /></g><g
           transform="translate(308.5182,86.3501)"
           id="g228"><path
             id="path230"
             style="fill:#000000;fill-opacity:1;fill-rule:nonzero;stroke:none"
             d="m 0,0 c -0.328,-0.607 -0.873,-0.912 -1.636,-0.912 -0.595,0 -1.091,0.203 -1.483,0.608 -0.394,0.406 -0.668,0.903 -0.822,1.493 -0.156,0.59 -0.233,1.26 -0.233,2.011 0,0.882 0.163,1.627 0.491,2.235 0.329,0.608 0.873,0.912 1.636,0.912 0.596,0 1.091,-0.203 1.485,-0.608 C -0.17,5.333 0.104,4.836 0.26,4.246 0.414,3.656 0.492,2.986 0.492,2.235 0.492,1.353 0.328,0.608 0,0 M -1.457,6.99 C -2.779,6.99 -3.813,6.579 -4.559,5.757 -5.304,4.935 -5.676,3.82 -5.676,2.414 c 0,-1.085 0.289,-2.018 0.867,-2.798 0.579,-0.781 1.439,-1.171 2.583,-1.171 1.324,0 2.357,0.411 3.102,1.233 0.745,0.823 1.117,1.937 1.117,3.343 0,1.085 -0.289,2.018 -0.867,2.798 C 0.548,6.6 -0.312,6.99 -1.457,6.99" /></g><g
           transform="translate(314.3903,85.832)"
           id="g232"><path
             id="path234"
             style="fill:#000000;fill-opacity:1;fill-rule:nonzero;stroke:none"
             d="M 0,0 C -0.321,0 -0.536,0.092 -0.644,0.277 -0.75,0.461 -0.804,0.733 -0.804,1.09 V 6.579 H -0.5 c 0.333,0 0.638,0.045 0.912,0.134 0.274,0.089 0.411,0.217 0.411,0.384 0,0.083 -0.053,0.125 -0.161,0.125 H -0.804 V 9.761 L -2.056,9.421 -2.127,7.222 -2.878,7.151 V 6.579 h 0.751 V 0.822 c 0,-1.239 0.536,-1.859 1.609,-1.859 0.31,0 0.64,0.093 0.993,0.277 0.35,0.185 0.533,0.324 0.545,0.42 L 1.091,0.429 C 0.995,0.333 0.829,0.238 0.591,0.143 0.352,0.047 0.155,0 0,0" /></g><g
           transform="translate(324.2223,87.5483)"
           id="g236"><path
             id="path238"
             style="fill:#000000;fill-opacity:1;fill-rule:nonzero;stroke:none"
             d="m 0,0 c -0.75,0.929 -1.126,2.127 -1.126,3.593 0,0.894 0.125,1.692 0.376,2.396 0.25,0.703 0.679,1.287 1.287,1.752 0.608,0.465 1.359,0.697 2.252,0.697 0.572,0 1.064,-0.089 1.476,-0.269 C 4.676,7.991 4.967,7.803 5.141,7.606 5.312,7.41 5.488,7.151 5.668,6.829 H 5.721 L 5.793,9.082 C 5.375,9.082 4.856,9.105 4.237,9.153 3.617,9.2 3.141,9.225 2.808,9.225 1.008,9.225 -0.408,8.667 -1.438,7.553 -2.47,6.438 -2.985,4.952 -2.985,3.092 c -0.012,-1.68 0.459,-3.074 1.413,-4.183 0.953,-1.108 2.228,-1.662 3.825,-1.662 1.251,0 2.243,0.286 2.976,0.858 0.734,0.572 1.1,1.114 1.1,1.626 v 0.108 C 5.578,-0.983 4.547,-1.395 3.236,-1.395 1.83,-1.395 0.751,-0.93 0,0" /></g><g
           transform="translate(335.3786,92.8042)"
           id="g240"><path
             id="path242"
             style="fill:#000000;fill-opacity:1;fill-rule:nonzero;stroke:none"
             d="m 0,0 c 0.417,0 0.748,-0.137 0.992,-0.411 0.244,-0.275 0.366,-0.59 0.366,-0.948 0,-0.167 -0.023,-0.298 -0.071,-0.393 C 1.239,-1.848 1.145,-1.916 1.001,-1.958 0.858,-2 0.727,-2.023 0.607,-2.029 0.488,-2.036 0.292,-2.038 0.018,-2.038 H -1.823 C -1.514,-0.68 -0.906,0 0,0 m 1.27,-2.575 c 0.452,0 0.774,0.01 0.964,0.027 0.191,0.018 0.361,0.09 0.51,0.215 0.149,0.125 0.224,0.318 0.224,0.581 0,0.619 -0.25,1.156 -0.751,1.609 -0.501,0.453 -1.162,0.679 -1.985,0.679 -1.179,0 -2.097,-0.408 -2.753,-1.224 -0.656,-0.817 -0.983,-1.833 -0.983,-3.048 0,-1.181 0.298,-2.188 0.894,-3.022 0.595,-0.834 1.448,-1.251 2.556,-1.251 0.68,0 1.321,0.188 1.922,0.563 0.602,0.375 0.903,0.796 0.903,1.26 v 0.197 c -0.214,-0.25 -0.522,-0.453 -0.92,-0.608 -0.4,-0.155 -0.814,-0.232 -1.244,-0.232 -0.87,0 -1.522,0.312 -1.957,0.938 -0.435,0.626 -0.652,1.397 -0.652,2.315 0,0.215 0.023,0.548 0.071,1.001 z" /></g><g
           transform="translate(345.8903,91.0161)"
           id="g244"><path
             id="path246"
             style="fill:#000000;fill-opacity:1;fill-rule:nonzero;stroke:none"
             d="M 0,0 C 0,1.549 -0.728,2.324 -2.182,2.324 -2.587,2.324 -2.971,2.235 -3.335,2.056 -3.698,1.877 -3.981,1.695 -4.184,1.511 -4.387,1.326 -4.5,1.234 -4.523,1.234 c -0.072,0 -0.108,0.095 -0.108,0.286 V 2.146 L -6.293,2.038 C -6.043,1.8 -5.918,1.204 -5.918,0.25 v -4.254 c 0,-0.954 -0.107,-1.598 -0.321,-1.931 h 1.966 c -0.214,0.333 -0.322,0.977 -0.322,1.931 v 2.878 c 0,1.656 0.56,2.485 1.681,2.485 0.345,0 0.628,-0.066 0.849,-0.197 0.22,-0.131 0.381,-0.325 0.482,-0.581 0.102,-0.256 0.17,-0.506 0.206,-0.75 0.036,-0.245 0.054,-0.534 0.054,-0.868 V -5.935 H 0.285 C 0.095,-5.602 0,-4.958 0,-4.004 Z" /></g><g
           transform="translate(350.484,85.832)"
           id="g248"><path
             id="path250"
             style="fill:#000000;fill-opacity:1;fill-rule:nonzero;stroke:none"
             d="M 0,0 C -0.321,0 -0.536,0.092 -0.644,0.277 -0.75,0.461 -0.804,0.733 -0.804,1.09 V 6.579 H -0.5 c 0.333,0 0.638,0.045 0.912,0.134 0.274,0.089 0.411,0.217 0.411,0.384 0,0.083 -0.053,0.125 -0.161,0.125 H -0.804 V 9.761 L -2.056,9.421 -2.127,7.222 -2.878,7.151 V 6.579 h 0.751 V 0.822 c 0,-1.239 0.536,-1.859 1.609,-1.859 0.31,0 0.64,0.093 0.993,0.277 0.35,0.185 0.533,0.324 0.545,0.42 L 1.091,0.429 C 0.995,0.333 0.829,0.238 0.591,0.143 0.352,0.047 0.155,0 0,0" /></g><g
           transform="translate(356.2409,92.8042)"
           id="g252"><path
             id="path254"
             style="fill:#000000;fill-opacity:1;fill-rule:nonzero;stroke:none"
             d="m 0,0 c 0.417,0 0.748,-0.137 0.992,-0.411 0.244,-0.275 0.366,-0.59 0.366,-0.948 0,-0.167 -0.023,-0.298 -0.071,-0.393 C 1.239,-1.848 1.145,-1.916 1.001,-1.958 0.858,-2 0.727,-2.023 0.607,-2.029 0.488,-2.036 0.292,-2.038 0.018,-2.038 H -1.823 C -1.514,-0.68 -0.906,0 0,0 m 1.27,-2.575 c 0.452,0 0.774,0.01 0.964,0.027 0.191,0.018 0.361,0.09 0.51,0.215 0.149,0.125 0.224,0.318 0.224,0.581 0,0.619 -0.25,1.156 -0.751,1.609 -0.501,0.453 -1.162,0.679 -1.985,0.679 -1.179,0 -2.097,-0.408 -2.753,-1.224 -0.656,-0.817 -0.983,-1.833 -0.983,-3.048 0,-1.181 0.298,-2.188 0.894,-3.022 0.595,-0.834 1.448,-1.251 2.556,-1.251 0.68,0 1.321,0.188 1.922,0.563 0.602,0.375 0.903,0.796 0.903,1.26 v 0.197 c -0.214,-0.25 -0.522,-0.453 -0.92,-0.608 -0.4,-0.155 -0.814,-0.232 -1.244,-0.232 -0.87,0 -1.522,0.312 -1.957,0.938 -0.435,0.626 -0.652,1.397 -0.652,2.315 0,0.215 0.023,0.548 0.071,1.001 z" /></g><g
           transform="translate(364.0895,93.3403)"
           id="g256"><path
             id="path258"
             style="fill:#000000;fill-opacity:1;fill-rule:nonzero;stroke:none"
             d="m 0,0 c -0.311,0 -0.602,-0.089 -0.876,-0.268 -0.274,-0.179 -0.482,-0.357 -0.626,-0.537 -0.143,-0.178 -0.221,-0.268 -0.232,-0.268 -0.06,0 -0.098,0.149 -0.117,0.448 -0.017,0.297 -0.086,0.446 -0.205,0.446 -0.059,0 -0.262,-0.012 -0.608,-0.035 -0.346,-0.025 -0.644,-0.042 -0.894,-0.054 0.143,-0.119 0.25,-0.346 0.323,-0.679 0.071,-0.334 0.112,-0.644 0.125,-0.93 0.011,-0.286 0.017,-0.709 0.017,-1.269 v -3.165 c 0,-0.953 -0.107,-1.603 -0.322,-1.948 h 1.967 c -0.215,0.345 -0.322,0.995 -0.322,1.948 v 3.683 c 0,0.465 0.066,0.816 0.197,1.055 0.131,0.238 0.399,0.357 0.804,0.357 0.155,0 0.355,-0.009 0.599,-0.027 0.244,-0.017 0.42,-0.027 0.527,-0.027 0.417,0 0.626,0.197 0.626,0.591 C 0.983,-0.227 0.655,0 0,0" /></g></g></g></g></svg>